<svg xmlns="http://www.w3.org/2000/svg" width="1920" height="1080" viewBox="0 0 1920 1080" preserveAspectRatio="xMidYMid slice">
  <defs>
    <filter id="b" x="-60%" y="-60%" width="220%" height="220%"><feGaussianBlur stdDeviation="130"/></filter>
    <radialGradient id="vig" cx="50%" cy="42%" r="78%">
      <stop offset="58%" stop-color="#05070d" stop-opacity="0"/>
      <stop offset="100%" stop-color="#05070d" stop-opacity="0.92"/>
    </radialGradient>
    <linearGradient id="fade" x1="0" y1="0" x2="1" y2="0">
      <stop offset="0" stop-color="#fff" stop-opacity="0"/>
      <stop offset="0.35" stop-color="#fff" stop-opacity="1"/>
    </linearGradient>
    <mask id="gridmask"><rect width="1920" height="1080" fill="url(#fade)"/></mask>
  </defs>
  <rect width="1920" height="1080" fill="#05070d"/>
  <g filter="url(#b)">
    <ellipse cx="1460" cy="150" rx="540" ry="390" fill="#34d399" opacity="0.36"/>
    <ellipse cx="240" cy="960" rx="580" ry="410" fill="#0d9488" opacity="0.32"/>
    <ellipse cx="880" cy="520" rx="430" ry="300" fill="#22d3ee" opacity="0.12"/>
  </g>
  <g stroke="#6ee7b7" opacity="0.09" stroke-width="2" mask="url(#gridmask)">
    <line x1="880" y1="560" x2="1920" y2="560"/>
    <line x1="880" y1="660" x2="1920" y2="660"/>
    <line x1="880" y1="760" x2="1920" y2="760"/>
    <line x1="880" y1="860" x2="1920" y2="860"/>
    <line x1="880" y1="960" x2="1920" y2="960"/>
    <line x1="1120" y1="520" x2="1120" y2="1000"/>
    <line x1="1420" y1="520" x2="1420" y2="1000"/>
    <line x1="1720" y1="520" x2="1720" y2="1000"/>
  </g>
  <g fill="#6ee7b7" opacity="0.07">
    <rect x="1140" y="580" width="260" height="60" rx="8"/>
    <rect x="1440" y="780" width="260" height="60" rx="8"/>
  </g>
  <rect width="1920" height="1080" fill="url(#vig)"/>
</svg>
